<?xml version="1.0" encoding="UTF-8" standalone="no"?>
<!-- Created with Inkscape (http://www.inkscape.org/) -->

<svg
   xmlns:dc="http://purl.org/dc/elements/1.1/"
   xmlns:cc="http://creativecommons.org/ns#"
   xmlns:rdf="http://www.w3.org/1999/02/22-rdf-syntax-ns#"
   xmlns:svg="http://www.w3.org/2000/svg"
   xmlns="http://www.w3.org/2000/svg"
   xmlns:sodipodi="http://sodipodi.sourceforge.net/DTD/sodipodi-0.dtd"
   xmlns:inkscape="http://www.inkscape.org/namespaces/inkscape"
   width="48"
   height="48"
   viewBox="0 0 12.7 12.7"
   version="1.1"
   id="svg8"
   inkscape:version="0.92.4 (f8dce91, 2019-08-02)"
   sodipodi:docname="icon_exam.svg">
  <defs
     id="defs2">
    <inkscape:perspective
       sodipodi:type="inkscape:persp3d"
       inkscape:vp_x="0 : 6.35 : 1"
       inkscape:vp_y="0 : 1000 : 0"
       inkscape:vp_z="12.7 : 6.35 : 1"
       inkscape:persp3d-origin="6.35 : 4.2333333 : 1"
       id="perspective12" />
  </defs>
  <sodipodi:namedview
     id="base"
     pagecolor="#ff8080"
     bordercolor="#666666"
     borderopacity="1.0"
     inkscape:pageopacity="1"
     inkscape:pageshadow="2"
     inkscape:zoom="6.9916667"
     inkscape:cx="17.168641"
     inkscape:cy="32.282634"
     inkscape:document-units="mm"
     inkscape:current-layer="layer1"
     showgrid="false"
     units="px"
     inkscape:window-width="1853"
     inkscape:window-height="1025"
     inkscape:window-x="67"
     inkscape:window-y="27"
     inkscape:window-maximized="1"
     inkscape:snap-others="true"
     inkscape:object-nodes="false" />
  <metadata
     id="metadata5">
    <rdf:RDF>
      <cc:Work
         rdf:about="">
        <dc:format>image/svg+xml</dc:format>
        <dc:type
           rdf:resource="http://purl.org/dc/dcmitype/StillImage" />
        <dc:title />
      </cc:Work>
    </rdf:RDF>
  </metadata>
  <g
     inkscape:label="icon"
     inkscape:groupmode="layer"
     id="layer1"
     transform="translate(0,-284.3)">
    <g
       id="g1766"
       transform="translate(-1.0424535,1.05833)">
      <path
         style="fill:#ffffff;fill-opacity:1;stroke:none;stroke-width:0.11431932;stroke-linecap:butt;stroke-linejoin:round;stroke-miterlimit:4;stroke-dasharray:none;stroke-opacity:1;paint-order:normal"
         d="m 10.35618,285.56835 c -0.143868,-0.42866 -0.03956,-1.14901 -0.334146,-1.40053 -2.9614406,0 -5.9228813,0 -8.884322,0 0.6367838,3.92462 1.2735675,7.84923 1.9103513,11.77385 2.9970936,0 5.9941871,0 8.9912807,0 -0.4292,-2.64513 -0.858399,-5.29026 -1.287599,-7.93539 -0.263129,0.41704 -1.0183682,1.0681 -0.9877666,1.34546 0.2821176,-0.0292 0.7138416,-0.0368 0.5019236,0.38027 -0.2979864,-0.0118 -0.6042882,-0.006 -0.9061974,-0.007 -0.3355038,0.51044 -1.1674284,1.25793 -1.2091782,1.62811 0.8119269,0 1.6238537,0 2.4357806,0 0.262816,0.69314 -0.7727053,0.24535 -1.145892,0.36559 -0.5537524,-0.003 -1.1075058,-0.007 -1.6612579,-0.0103 -0.062656,-0.81031 -1.256124,-0.88773 -1.5947658,-0.95013 0.143011,-0.30573 0.9102837,-0.91528 0.6674689,-1.03324 -1.3350129,0 -2.6700258,0 -4.0050387,0 -0.261175,-0.5063 0.2846142,-0.35513 0.5775592,-0.37288 1.2959921,0 2.5919842,0 3.8879763,0 0.2660997,-0.42745 1.0231537,-1.09066 0.9965296,-1.37753 -1.9187141,0 -3.8374282,0 -5.7561423,0 -0.2619506,-0.50618 0.2840725,-0.35512 0.5769832,-0.37284 1.8818598,0 3.7637197,0 5.6455795,0 0.5269573,-0.67767 1.0539259,-1.3554 1.580873,-2.03304 z m -8.1534458,0.59918 c -0.2612534,-0.50656 0.2842963,-0.35588 0.5775582,-0.37344 2.3115805,0 4.6231611,0 6.9347417,0 0.2144547,0.7243 -0.9177114,0.21226 -1.3153752,0.36479 -2.0656351,0.003 -4.1313227,0.006 -6.1969247,0.009 z m 3.3033707,7.128 c 1.7977677,0 3.5955354,0 5.3933031,0 0.261259,0.50655 -0.284297,0.35587 -0.577553,0.37343 -2.2769824,0 -4.5539644,0 -6.8309464,0 -0.2612519,-0.50655 0.2843019,-0.35587 0.5775582,-0.37343 0.3569714,0 0.7139428,0 1.0709142,0 0.1345085,-0.5183 0.2690171,-1.0366 0.4035256,-1.5549 -0.7881742,-0.005 -1.5763484,-0.01 -2.3645262,-0.0144 -0.2651155,-0.68136 0.7367948,-0.2553 1.1024921,-0.36247 0.7205773,0.0298 1.4427571,-0.0116 2.160099,-0.012 0.5789841,-0.0235 1.4525761,0.82313 0.5320019,1.05235 -0.4889305,0.29712 -0.9780657,0.59458 -1.4668685,0.89147 z m -1.8692604,1.66988 c 2.4942785,0 4.988557,0 7.4828355,0 0.26202,0.50645 -0.283748,0.35591 -0.576993,0.37343 -2.2769772,0 -4.5539541,0 -6.8309309,0 -0.024971,-0.12448 -0.049941,-0.24895 -0.074912,-0.37343 z"
         id="path28"
         inkscape:connector-curvature="0" />
      <path
         style="fill:#ffffff;fill-opacity:1;stroke:none;stroke-width:0.20730643;stroke-linecap:round;stroke-linejoin:round;stroke-miterlimit:4;stroke-dasharray:none;stroke-opacity:1"
         d="m 12.243275,283.24167 c -0.318656,0.38882 -0.637312,0.77763 -0.955968,1.16645 0.708151,-0.16072 1.220622,0.76036 1.532152,0.92359 0.275912,-0.35567 0.551824,-0.71133 0.827736,-1.067 -0.278122,-0.54381 -0.753332,-1.02059 -1.40392,-1.02304 z"
         id="path4964-7-5"
         inkscape:connector-curvature="0" />
      <path
         style="fill:#ffffff;fill-opacity:1;stroke:none;stroke-width:0.20730643;stroke-linecap:round;stroke-linejoin:round;stroke-miterlimit:4;stroke-dasharray:none;stroke-opacity:1"
         d="m 10.885653,284.97716 c -0.167527,0.19067 -0.335054,0.38134 -0.502581,0.57201 0.69592,0.16992 0.303837,1.07382 0.290082,1.57517 -0.0812,0.31455 -0.03498,1.12537 0.274259,0.54298 0.458239,-0.57358 0.916477,-1.14716 1.374716,-1.72074 -0.283703,-0.53218 -0.784792,-1.02936 -1.436476,-0.96942 z"
         id="path4964-7-3"
         inkscape:connector-curvature="0" />
    </g>
  </g>
</svg>
