<?xml version="1.0" encoding="UTF-8" standalone="no"?>
<!-- Created with Inkscape (http://www.inkscape.org/) -->

<svg
   xmlns:dc="http://purl.org/dc/elements/1.1/"
   xmlns:cc="http://creativecommons.org/ns#"
   xmlns:rdf="http://www.w3.org/1999/02/22-rdf-syntax-ns#"
   xmlns:svg="http://www.w3.org/2000/svg"
   xmlns="http://www.w3.org/2000/svg"
   xmlns:sodipodi="http://sodipodi.sourceforge.net/DTD/sodipodi-0.dtd"
   xmlns:inkscape="http://www.inkscape.org/namespaces/inkscape"
   width="48"
   height="48"
   viewBox="0 0 12.7 12.7"
   version="1.1"
   id="svg8"
   inkscape:version="0.92.4 (f8dce91, 2019-08-02)"
   sodipodi:docname="icon_launcher_teacher.svg">
  <defs
     id="defs2">
    <inkscape:perspective
       sodipodi:type="inkscape:persp3d"
       inkscape:vp_x="0 : 6.35 : 1"
       inkscape:vp_y="0 : 1000 : 0"
       inkscape:vp_z="12.7 : 6.35 : 1"
       inkscape:persp3d-origin="6.35 : 4.2333333 : 1"
       id="perspective12" />
    <inkscape:perspective
       id="perspective12-7"
       inkscape:persp3d-origin="6.35 : 4.2333333 : 1"
       inkscape:vp_z="12.7 : 6.35 : 1"
       inkscape:vp_y="0 : 1000 : 0"
       inkscape:vp_x="0 : 6.35 : 1"
       sodipodi:type="inkscape:persp3d" />
    <inkscape:perspective
       id="perspective12-9"
       inkscape:persp3d-origin="6.35 : 4.2333333 : 1"
       inkscape:vp_z="12.7 : 6.35 : 1"
       inkscape:vp_y="0 : 1000 : 0"
       inkscape:vp_x="0 : 6.35 : 1"
       sodipodi:type="inkscape:persp3d" />
    <inkscape:perspective
       id="perspective12-3"
       inkscape:persp3d-origin="6.35 : 4.2333333 : 1"
       inkscape:vp_z="12.7 : 6.35 : 1"
       inkscape:vp_y="0 : 1000 : 0"
       inkscape:vp_x="0 : 6.35 : 1"
       sodipodi:type="inkscape:persp3d" />
    <inkscape:perspective
       id="perspective12-0"
       inkscape:persp3d-origin="6.35 : 4.2333333 : 1"
       inkscape:vp_z="12.7 : 6.35 : 1"
       inkscape:vp_y="0 : 1000 : 0"
       inkscape:vp_x="0 : 6.35 : 1"
       sodipodi:type="inkscape:persp3d" />
  </defs>
  <sodipodi:namedview
     id="base"
     pagecolor="#ff8080"
     bordercolor="#666666"
     borderopacity="1.0"
     inkscape:pageopacity="1"
     inkscape:pageshadow="2"
     inkscape:zoom="11.313709"
     inkscape:cx="14.117911"
     inkscape:cy="17.744911"
     inkscape:document-units="mm"
     inkscape:current-layer="layer1"
     showgrid="false"
     units="px"
     inkscape:window-width="1853"
     inkscape:window-height="1025"
     inkscape:window-x="67"
     inkscape:window-y="27"
     inkscape:window-maximized="1"
     inkscape:snap-others="true"
     inkscape:object-nodes="false" />
  <metadata
     id="metadata5">
    <rdf:RDF>
      <cc:Work
         rdf:about="">
        <dc:format>image/svg+xml</dc:format>
        <dc:type
           rdf:resource="http://purl.org/dc/dcmitype/StillImage" />
        <dc:title />
      </cc:Work>
    </rdf:RDF>
  </metadata>
  <g
     inkscape:label="icon"
     inkscape:groupmode="layer"
     id="layer1"
     transform="translate(0,-284.3)">
    <g
       id="layer1-60"
       inkscape:label="icon">
      <g
         transform="translate(-1.0424535,1.05833)"
         id="g1766">
        <path
           style="fill:#ffffff;fill-opacity:1;stroke:none;stroke-width:0.11431932;stroke-linecap:butt;stroke-linejoin:round;stroke-miterlimit:4;stroke-dasharray:none;stroke-opacity:1;paint-order:normal"
           d="m 10.35618,285.56835 c -0.144087,-0.42856 -0.03919,-1.14976 -0.334548,-1.40053 -2.9613065,0 -5.9226132,0 -8.88392,0 0.6367838,3.92462 1.2735675,7.84923 1.9103513,11.77385 2.9970936,0 5.9941871,0 8.9912807,0 -0.4292,-2.64513 -0.858399,-5.29026 -1.287599,-7.93539 -0.262789,0.41694 -1.019396,1.06872 -0.9873647,1.34546 0.2820177,-0.0292 0.7137757,-0.0372 0.5015217,0.38027 -0.297986,-0.0118 -0.6042884,-0.006 -0.9061974,-0.007 -0.335136,0.51033 -1.1684923,1.25857 -1.2087763,1.62811 0.8117929,0 1.6235858,0 2.4353787,0 0.262816,0.69314 -0.7727053,0.24535 -1.145892,0.36559 -0.5537524,-0.003 -1.1075058,-0.007 -1.6612579,-0.0103 -0.062656,-0.81031 -1.256124,-0.88773 -1.5947658,-0.95013 0.1427298,-0.30568 0.9114067,-0.91601 0.6669331,-1.03324 -1.3348343,0 -2.6696686,0 -4.0045029,0 -0.2614032,-0.50706 0.2860526,-0.35478 0.5791666,-0.37288 1.2954563,0 2.5909126,0 3.8863689,0 0.2657577,-0.42735 1.0241808,-1.09128 0.9961277,-1.37753 -1.9185801,0 -3.8371603,0 -5.7557404,0 -0.26218,-0.50694 0.2855114,-0.35477 0.5785906,-0.37284 1.881324,0 3.7626481,0 5.6439721,0 0.5269573,-0.67767 1.0539259,-1.3554 1.580873,-2.03304 z m -8.1534458,0.59918 c -0.2614826,-0.50732 0.2857348,-0.35553 0.5791656,-0.37344 2.3110447,0 4.6220895,0 6.9331343,0 0.2144547,0.7243 -0.9177114,0.21226 -1.3153752,0.36479 -2.0656351,0.003 -4.1313227,0.006 -6.1969247,0.009 z m 3.3033707,7.128 c 1.7977677,0 3.5955354,0 5.3933031,0 0.261489,0.50732 -0.285736,0.35551 -0.579161,0.37343 -2.276446,0 -4.5528922,0 -6.8293384,0 -0.2614811,-0.50732 0.2857404,-0.35551 0.5791656,-0.37343 0.3564356,0 0.7128712,0 1.0693068,0 0.1345085,-0.5183 0.2690171,-1.0366 0.4035256,-1.5549 -0.7881742,-0.005 -1.5763484,-0.01 -2.3645262,-0.0144 -0.2651155,-0.68136 0.7367948,-0.2553 1.1024921,-0.36247 0.7205773,0.0298 1.4427571,-0.0116 2.160099,-0.012 0.5789841,-0.0235 1.4525761,0.82313 0.5320019,1.05235 -0.4889305,0.29712 -0.9780657,0.59458 -1.4668685,0.89147 z m -1.8692604,1.66988 c 2.4942785,0 4.988557,0 7.4828355,0 0.26225,0.50721 -0.285187,0.35556 -0.578601,0.37343 -2.2764408,0 -4.5528819,0 -6.8293229,0 -0.024971,-0.12448 -0.049941,-0.24895 -0.074912,-0.37343 z"
           id="path28"
           inkscape:connector-curvature="0" />
        <path
           style="fill:#ffffff;fill-opacity:1;stroke:none;stroke-width:0.20730643;stroke-linecap:round;stroke-linejoin:round;stroke-miterlimit:4;stroke-dasharray:none;stroke-opacity:1"
           d="m 12.243275,283.24167 c -0.318656,0.38882 -0.637312,0.77763 -0.955968,1.16645 0.708356,-0.16119 1.220723,0.76149 1.532399,0.92327 0.27583,-0.35556 0.551659,-0.71112 0.827489,-1.06668 -0.278122,-0.54381 -0.753332,-1.02059 -1.40392,-1.02304 z"
           id="path4964-7-5"
           inkscape:connector-curvature="0" />
        <path
           style="fill:#ffffff;fill-opacity:1;stroke:none;stroke-width:0.20730643;stroke-linecap:round;stroke-linejoin:round;stroke-miterlimit:4;stroke-dasharray:none;stroke-opacity:1"
           d="m 10.885653,284.97716 c -0.167527,0.19067 -0.335054,0.38134 -0.502581,0.57201 0.69592,0.16992 0.303837,1.07382 0.290082,1.57517 -0.08154,0.31598 -0.03446,1.12536 0.275095,0.54194 0.45796,-0.57324 0.91592,-1.14647 1.37388,-1.7197 -0.283703,-0.53218 -0.784792,-1.02936 -1.436476,-0.96942 z"
           id="path4964-7-3"
           inkscape:connector-curvature="0" />
      </g>
    </g>
    <g
       transform="matrix(0.47120452,0,0,0.47120452,-0.27843391,150.34891)"
       id="layer1-6"
       inkscape:label="icon"
       style="fill:#000000;fill-opacity:1">
      <g
         transform="matrix(1.7401241,0,0,1.7401241,-4.3126324,-214.56194)"
         id="g3832"
         style="fill:#000000;fill-opacity:1">
        <path
           style="fill:#000000;fill-opacity:1;stroke:none;stroke-width:0.28705266;stroke-linecap:butt;stroke-linejoin:round;stroke-miterlimit:4;stroke-dasharray:none;stroke-opacity:1;paint-order:normal"
           d="m 8.1830404,289.4609 c -0.4732134,1.16771 -2.0073758,1.78302 -3.1069693,1.0944 -0.6799181,-0.1773 -0.8344539,-1.58382 -1.513687,-0.75475 -0.9478426,0.83803 -0.7335199,2.22184 -0.7090925,3.35241 0.031647,0.40891 -0.1386733,1.00171 0.4559384,0.82719 2.0211385,0 4.0422771,0 6.0634156,0 -0.040854,-1.25157 0.3309291,-2.60631 -0.2985585,-3.76172 -0.2083367,-0.33876 -0.5337565,-0.59107 -0.8910467,-0.75753 z"
           id="path990-6-7"
           inkscape:connector-curvature="0" />
        <path
           style="fill:#000000;fill-opacity:1;stroke:none;stroke-width:0.09029277;stroke-linecap:butt;stroke-linejoin:round;stroke-miterlimit:4;stroke-dasharray:none;stroke-opacity:1;paint-order:normal"
           d="m 7.6157673,288.31038 c 0.069919,1.03169 -1.0698947,1.99588 -2.051166,1.5 -1.2086923,-0.5364 -1.1865721,-2.51635 0.03995,-3.01788 1.002671,-0.4514 2.0556494,0.49256 2.0112165,1.51788 z"
           id="path990"
           inkscape:connector-curvature="0" />
      </g>
    </g>
  </g>
</svg>
