<?xml version="1.0" encoding="UTF-8" standalone="no"?>
<!-- Created with Inkscape (http://www.inkscape.org/) -->

<svg
   xmlns:dc="http://purl.org/dc/elements/1.1/"
   xmlns:cc="http://creativecommons.org/ns#"
   xmlns:rdf="http://www.w3.org/1999/02/22-rdf-syntax-ns#"
   xmlns:svg="http://www.w3.org/2000/svg"
   xmlns="http://www.w3.org/2000/svg"
   xmlns:sodipodi="http://sodipodi.sourceforge.net/DTD/sodipodi-0.dtd"
   xmlns:inkscape="http://www.inkscape.org/namespaces/inkscape"
   width="48"
   height="48"
   viewBox="0 0 12.7 12.7"
   version="1.1"
   id="svg8"
   inkscape:version="0.92.4 (f8dce91, 2019-08-02)"
   sodipodi:docname="icon_exam_small_bk.svg">
  <defs
     id="defs2">
    <inkscape:perspective
       sodipodi:type="inkscape:persp3d"
       inkscape:vp_x="0 : 6.35 : 1"
       inkscape:vp_y="0 : 1000 : 0"
       inkscape:vp_z="12.7 : 6.35 : 1"
       inkscape:persp3d-origin="6.35 : 4.2333333 : 1"
       id="perspective12" />
  </defs>
  <sodipodi:namedview
     id="base"
     pagecolor="#ff8080"
     bordercolor="#666666"
     borderopacity="1.0"
     inkscape:pageopacity="1"
     inkscape:pageshadow="2"
     inkscape:zoom="6.9916667"
     inkscape:cx="10.134527"
     inkscape:cy="20.251266"
     inkscape:document-units="mm"
     inkscape:current-layer="layer1"
     showgrid="false"
     units="px"
     inkscape:window-width="1853"
     inkscape:window-height="1025"
     inkscape:window-x="67"
     inkscape:window-y="27"
     inkscape:window-maximized="1"
     inkscape:snap-others="true"
     inkscape:object-nodes="false" />
  <metadata
     id="metadata5">
    <rdf:RDF>
      <cc:Work
         rdf:about="">
        <dc:format>image/svg+xml</dc:format>
        <dc:type
           rdf:resource="http://purl.org/dc/dcmitype/StillImage" />
        <dc:title></dc:title>
      </cc:Work>
    </rdf:RDF>
  </metadata>
  <g
     inkscape:label="icon"
     inkscape:groupmode="layer"
     id="layer1"
     transform="translate(0,-284.3)">
    <g
       id="g1766"
       transform="translate(-1.0424535,1.05833)"
       style="fill:#000000">
      <path
         style="fill:#000000;fill-opacity:1;stroke:none;stroke-width:0.11431932;stroke-linecap:butt;stroke-linejoin:round;stroke-miterlimit:4;stroke-dasharray:none;stroke-opacity:1;paint-order:normal"
         d="m 10.35618,285.56835 c -0.209876,-0.43524 0.109366,-1.29606 -0.5373789,-1.40053 -2.8936963,0 -5.7873927,0 -8.6810891,0 0.6367838,3.92462 1.2735675,7.84923 1.9103513,11.77385 2.9970936,0 5.9941871,0 8.9912807,0 -0.4292,-2.64513 -0.858399,-5.29026 -1.287599,-7.93539 -1.0595529,1.29136 -2.1718633,2.54092 -3.1667555,3.88417 0.4502177,-0.53435 -0.3596718,-0.94791 -0.8060601,-1.04102 -0.3784334,-0.0149 -0.9750504,-0.16115 -0.4927342,-0.59788 1.343692,-1.56966 2.7141569,-3.12143 4.0699848,-4.6832 z m -5.2703166,8.00815 c 0.1523477,-0.61196 0.3046955,-1.22391 0.4570432,-1.83587 0.3991257,-0.72821 1.6454772,-0.4487 1.8312148,0.3131 -0.6739533,0.63043 -1.5003096,1.05686 -2.288258,1.52277 z"
         id="path28"
         inkscape:connector-curvature="0" />
      <path
         style="fill:#000000;fill-opacity:1;stroke:none;stroke-width:0.20730643;stroke-linecap:round;stroke-linejoin:round;stroke-miterlimit:4;stroke-dasharray:none;stroke-opacity:1"
         d="m 12.243275,283.24167 c -0.21538,0.34939 -0.962603,0.99648 -0.825484,1.14854 0.669446,-0.16351 1.051681,1.04656 1.505135,0.80812 0.271281,-0.45761 1.063772,-0.9263 0.406452,-1.41137 -0.268347,-0.31808 -0.661038,-0.54962 -1.086103,-0.54529 z"
         id="path4964-7-5"
         inkscape:connector-curvature="0" />
      <path
         style="fill:#000000;fill-opacity:1;stroke:none;stroke-width:0.20730643;stroke-linecap:round;stroke-linejoin:round;stroke-miterlimit:4;stroke-dasharray:none;stroke-opacity:1"
         d="m 10.885653,284.97716 c -0.167527,0.19067 -0.335054,0.38134 -0.502581,0.57201 0.77845,0.29971 0.219454,1.27331 0.255192,1.87461 -0.07674,0.54988 0.269876,0.46464 0.44267,0.0764 0.413732,-0.51787 0.827463,-1.03574 1.241195,-1.55361 -0.276712,-0.52725 -0.794122,-1.03398 -1.436476,-0.96942 z"
         id="path4964-7-3"
         inkscape:connector-curvature="0" />
    </g>
  </g>
</svg>
