<?xml version="1.0" encoding="UTF-8" standalone="no"?>
<!-- Created with Inkscape (http://www.inkscape.org/) -->

<svg
   xmlns:dc="http://purl.org/dc/elements/1.1/"
   xmlns:cc="http://creativecommons.org/ns#"
   xmlns:rdf="http://www.w3.org/1999/02/22-rdf-syntax-ns#"
   xmlns:svg="http://www.w3.org/2000/svg"
   xmlns="http://www.w3.org/2000/svg"
   xmlns:sodipodi="http://sodipodi.sourceforge.net/DTD/sodipodi-0.dtd"
   xmlns:inkscape="http://www.inkscape.org/namespaces/inkscape"
   width="35mm"
   height="5mm"
   viewBox="0 0 35 5"
   version="1.1"
   id="svg8"
   inkscape:version="0.92.4 (33fec40, 2019-01-16)"
   sodipodi:docname="progress.svg">
  <defs
     id="defs2" />
  <sodipodi:namedview
     id="base"
     pagecolor="#ffffff"
     bordercolor="#666666"
     borderopacity="1.0"
     inkscape:pageopacity="0.0"
     inkscape:pageshadow="2"
     inkscape:zoom="7.9195959"
     inkscape:cx="64.114337"
     inkscape:cy="29.703988"
     inkscape:document-units="mm"
     inkscape:current-layer="layer1"
     showgrid="false"
     inkscape:window-width="1853"
     inkscape:window-height="1025"
     inkscape:window-x="67"
     inkscape:window-y="27"
     inkscape:window-maximized="1" />
  <metadata
     id="metadata5">
    <rdf:RDF>
      <cc:Work
         rdf:about="">
        <dc:format>image/svg+xml</dc:format>
        <dc:type
           rdf:resource="http://purl.org/dc/dcmitype/StillImage" />
        <dc:title />
      </cc:Work>
    </rdf:RDF>
  </metadata>
  <g
     inkscape:label="Layer 1"
     inkscape:groupmode="layer"
     id="layer1"
     transform="translate(0,-292)">
    <path
       style="fill:none;fill-opacity:1;stroke:#000000;stroke-width:0.38544923;stroke-linecap:round;stroke-linejoin:round;stroke-miterlimit:4;stroke-dasharray:none;stroke-opacity:1"
       d="M 4.8072753,294.5 A 2.3072753,2.3072753 0 0 1 2.5,296.80728 2.3072753,2.3072753 0 0 1 0.1927247,294.5 2.3072753,2.3072753 0 0 1 2.5,292.19272 2.3072753,2.3072753 0 0 1 4.8072753,294.5 Z"
       id="path882"
       inkscape:connector-curvature="0" />
    <path
       style="fill:#000000;fill-opacity:1;stroke:none;stroke-width:0.31557876;stroke-linecap:round;stroke-linejoin:round;stroke-miterlimit:4;stroke-dasharray:none;stroke-opacity:1"
       d="m 14.100001,294.5 a 1.6,1.6 0 0 1 -1.6,1.6 1.6,1.6 0 0 1 -1.600001,-1.6 1.6,1.6 0 0 1 1.600001,-1.6 1.6,1.6 0 0 1 1.6,1.6 z"
       id="path884"
       inkscape:connector-curvature="0" />
    <path
       style="fill:none;fill-opacity:1;stroke:#000000;stroke-width:0.38544923;stroke-linecap:round;stroke-linejoin:round;stroke-miterlimit:4;stroke-dasharray:none;stroke-opacity:1"
       d="M 14.807276,294.5 A 2.3072753,2.3072753 0 0 1 12.5,296.80728 2.3072753,2.3072753 0 0 1 10.192725,294.5 2.3072753,2.3072753 0 0 1 12.5,292.19272 2.3072753,2.3072753 0 0 1 14.807276,294.5 Z"
       id="path882-5"
       inkscape:connector-curvature="0" />
    <path
       style="fill:none;fill-opacity:1;stroke:#000000;stroke-width:0.38544923;stroke-linecap:round;stroke-linejoin:round;stroke-miterlimit:4;stroke-dasharray:none;stroke-opacity:1"
       d="M 24.807276,294.5 A 2.3072753,2.3072753 0 0 1 22.500001,296.80728 2.3072753,2.3072753 0 0 1 20.192725,294.5 2.3072753,2.3072753 0 0 1 22.500001,292.19272 2.3072753,2.3072753 0 0 1 24.807276,294.5 Z"
       id="path882-56"
       inkscape:connector-curvature="0" />
    <path
       style="fill:none;fill-opacity:1;stroke:#000000;stroke-width:0.38544923;stroke-linecap:round;stroke-linejoin:round;stroke-miterlimit:4;stroke-dasharray:none;stroke-opacity:1"
       d="M 30.192725,294.5 A 2.3072753,2.3072753 0 0 0 32.5,296.80728 2.3072753,2.3072753 0 0 0 34.807275,294.5 2.3072753,2.3072753 0 0 0 32.5,292.19272 2.3072753,2.3072753 0 0 0 30.192725,294.5 Z"
       id="path882-9"
       inkscape:connector-curvature="0" />
    <path
       style="fill:#000000;fill-opacity:1;stroke:none;stroke-width:0.31557876;stroke-linecap:round;stroke-linejoin:round;stroke-miterlimit:4;stroke-dasharray:none;stroke-opacity:1"
       d="m 24.100001,294.5 a 1.6,1.6 0 0 1 -1.6,1.6 1.6,1.6 0 0 1 -1.600001,-1.6 1.6,1.6 0 0 1 1.600001,-1.6 1.6,1.6 0 0 1 1.6,1.6 z"
       id="path884-3"
       inkscape:connector-curvature="0" />
    <path
       style="fill:#000000;fill-opacity:1;stroke:none;stroke-width:0.31557876;stroke-linecap:round;stroke-linejoin:round;stroke-miterlimit:4;stroke-dasharray:none;stroke-opacity:1"
       d="m 34.100001,294.5 a 1.6,1.6 0 0 1 -1.6,1.6 1.6,1.6 0 0 1 -1.600001,-1.6 1.6,1.6 0 0 1 1.600001,-1.6 1.6,1.6 0 0 1 1.6,1.6 z"
       id="path884-6"
       inkscape:connector-curvature="0" />
  </g>
</svg>
